<svg width="50" height="50" viewBox="0 0 50 50" fill="none" xmlns="http://www.w3.org/2000/svg">
<path d="M17.2 19.85L18.525 21.175C19.25 21.9 20.45 21.9 21.175 21.175C21.9 20.45 21.9 19.25 21.175 18.525L18.975 16.325C18 15.35 16.425 15.35 15.45 16.325L13.225 18.525C12.5 19.25 12.5 20.45 13.225 21.175C13.95 21.9 15.15 21.9 15.875 21.175L17.2 19.85ZM25 38.75C30.075 38.75 34.5 35.975 36.875 31.875C37.35 31.05 36.75 30 35.775 30H14.225C13.275 30 12.65 31.05 13.125 31.875C15.5 35.975 19.925 38.75 25 38.75ZM28.825 21.175C29.55 21.9 30.75 21.9 31.475 21.175L32.8 19.85L34.125 21.175C34.85 21.9 36.05 21.9 36.775 21.175C37.5 20.45 37.5 19.25 36.775 18.525L34.575 16.325C33.6 15.35 32.025 15.35 31.05 16.325L28.85 18.525C28.1 19.25 28.1 20.45 28.825 21.175ZM24.975 0C11.175 0 0 11.175 0 25C0 38.825 11.175 50 24.975 50C38.775 50 50 38.825 50 25C50 11.175 38.8 0 24.975 0ZM25 45C13.95 45 5 36.05 5 25C5 13.95 13.95 5 25 5C36.05 5 45 13.95 45 25C45 36.05 36.05 45 25 45Z" fill="url(#paint0_linear_152_316)"/>
<defs>
<linearGradient id="paint0_linear_152_316" x1="25" y1="0" x2="25" y2="50" gradientUnits="userSpaceOnUse">
<stop stop-color="#195A95"/>
<stop offset="1" stop-color="#488CCA" stop-opacity="0.66"/>
</linearGradient>
</defs>
</svg>
