<svg width="50" height="50" viewBox="0 0 50 50" fill="none" xmlns="http://www.w3.org/2000/svg">
<path d="M24.9875 0H7.49625C3.34833 0 0 4.1875 0 9.375V34.375C0 39.5625 3.34833 43.75 7.49625 43.75L5.57221 46.1562C4.87256 47.0312 4.87256 48.4062 5.57221 49.2812C6.27186 50.1562 7.37131 50.1562 8.07096 49.2812L12.4938 43.75H17.4913V28.125H6.24688C5.54723 28.125 4.9975 27.4375 4.9975 26.5625V7.8125C4.9975 6.9375 5.54723 6.25 6.24688 6.25H26.2369C26.9365 6.25 27.4863 6.9375 27.4863 7.8125V12.5H32.4838V9.375C32.4838 4.1875 29.1354 0 24.9875 0ZM7.49625 31.25C8.87057 31.25 9.995 32.6562 9.995 34.375C9.995 36.0938 8.87057 37.5 7.49625 37.5C6.12194 37.5 4.9975 36.0938 4.9975 34.375C4.9975 32.6562 6.12194 31.25 7.49625 31.25ZM46.4018 17.6875C46.052 16.4375 45.1025 15.625 43.978 15.625H26.012C24.8626 15.625 23.938 16.4375 23.5632 17.6875L20.015 30.5313V46.9062C20.015 48.625 21.1394 50 22.5137 50C23.8881 50 25.0125 48.5938 25.0125 46.875V43.75H45.0025V46.875C45.0025 48.5938 46.1269 50 47.5013 50C48.8756 50 49.975 48.625 50 46.9062L49.975 30.5313L46.4018 17.6875ZM26.9115 18.75H43.1035C43.6282 18.75 44.1029 19.1875 44.2779 19.8125L46.002 26.0625C46.2769 27.0625 45.6772 28.125 44.8276 28.125H25.2124C24.3628 28.125 23.7631 27.0625 24.038 26.0625L25.7621 19.8125C25.8871 19.1875 26.3618 18.75 26.9115 18.75ZM24.9875 37.5C23.6132 37.5 22.4888 36.0938 22.4888 34.375C22.4888 32.6562 23.6132 31.25 24.9875 31.25C26.3618 31.25 27.4863 32.6562 27.4863 34.375C27.4863 36.0938 26.3618 37.5 24.9875 37.5ZM44.9775 37.5C43.6032 37.5 42.4788 36.0938 42.4788 34.375C42.4788 32.6562 43.6032 31.25 44.9775 31.25C46.3518 31.25 47.4763 32.6562 47.4763 34.375C47.4763 36.0938 46.3518 37.5 44.9775 37.5Z" fill="url(#paint0_linear_152_317)"/>
<defs>
<linearGradient id="paint0_linear_152_317" x1="25" y1="0" x2="25" y2="50" gradientUnits="userSpaceOnUse">
<stop stop-color="#195994"/>
<stop offset="1" stop-color="#498CCA" stop-opacity="0.66"/>
</linearGradient>
</defs>
</svg>
