<svg width="50" height="50" viewBox="0 0 50 50" fill="none" xmlns="http://www.w3.org/2000/svg">
<path d="M45 0H5C2.225 0 0.025 2.78125 0.025 6.25L0 43.75C0 47.2188 2.225 50 5 50H45C47.775 50 50 47.2188 50 43.75V6.25C50 2.78125 47.775 0 45 0ZM42.5 43.75H7.5C6.125 43.75 5 42.3438 5 40.625V25H45V40.625C45 42.3438 43.875 43.75 42.5 43.75ZM45 12.5H5V6.25H45V12.5Z" fill="url(#paint0_linear_152_318)"/>
<defs>
<linearGradient id="paint0_linear_152_318" x1="25" y1="0" x2="25" y2="50" gradientUnits="userSpaceOnUse">
<stop stop-color="#195994"/>
<stop offset="1" stop-color="#498CCA" stop-opacity="0.66"/>
</linearGradient>
</defs>
</svg>
