<svg width="34" height="34" viewBox="0 0 34 34" fill="none" xmlns="http://www.w3.org/2000/svg">
<path fill-rule="evenodd" clip-rule="evenodd" d="M30.6 0H3.4C1.52223 0 0 1.48363 0 3.31377V29.8239C0 31.6541 1.52223 33.1377 3.4 33.1377H17V20.6623H11.9V15.9841H17V13.4718C17 8.7156 19.5324 6.62754 23.6724 6.62754C25.6162 6.62754 26.6621 6.76244 27.1702 6.82798L27.2 6.83182V11.3058H24.3763C22.6191 11.3058 22.1 12.1916 22.1 13.9849V15.9841H27.1559L26.4569 20.6623H22.1V33.1377H30.6C32.4778 33.1377 34 31.6541 34 29.8239V3.31377C34 1.48363 32.4778 0 30.6 0Z" fill="#8F96C0"/>
</svg>
