<svg width="34" height="34" viewBox="0 0 34 34" fill="none" xmlns="http://www.w3.org/2000/svg">
<path fill-rule="evenodd" clip-rule="evenodd" d="M10.2 0H23.8C29.4333 0 34 4.45088 34 9.94131V23.1964C34 28.6868 29.4333 33.1377 23.8 33.1377H10.2C4.5667 33.1377 0 28.6868 0 23.1964V9.94131C0 4.45088 4.5667 0 10.2 0ZM27.2 4.97065C28.05 4.97065 28.9 5.7991 28.9 6.62754C28.9 7.45598 28.05 8.28442 27.2 8.28442C26.35 8.28442 25.5 7.45598 25.5 6.62754C25.5 5.7991 26.35 4.97065 27.2 4.97065ZM25.5 16.5688C25.5 12 21.6877 8.28442 17 8.28442C12.3123 8.28442 8.5 12 8.5 16.5688C8.5 21.1377 12.3123 24.8533 17 24.8533C21.6877 24.8533 25.5 21.1377 25.5 16.5688ZM17 11.5982C14.1833 11.5982 11.9 13.8236 11.9 16.5688C11.9 19.3141 14.1833 21.5395 17 21.5395C19.8167 21.5395 22.1 19.3141 22.1 16.5688C22.1 13.8236 19.8167 11.5982 17 11.5982Z" fill="#8F96C0"/>
</svg>
