<svg width="300" height="114" viewBox="0 0 300 114" fill="none" xmlns="http://www.w3.org/2000/svg">
<path d="M4.41909 4.14471H39.8196C40.9651 4.16055 42.0583 4.62671 42.8628 5.44235C43.6672 6.25799 44.1182 7.35753 44.1182 8.50312C44.1182 9.64872 43.6672 10.7483 42.8628 11.5639C42.0583 12.3795 40.9651 12.8457 39.8196 12.8615H26.434V61.5602C26.442 62.1377 26.3352 62.7111 26.1197 63.247C25.9042 63.7829 25.5844 64.2706 25.1788 64.6818C24.7732 65.0931 24.2899 65.4196 23.7571 65.6425C23.2242 65.8654 22.6524 65.9801 22.0748 65.9801C21.4972 65.9801 20.9254 65.8654 20.3925 65.6425C19.8596 65.4196 19.3764 65.0931 18.9708 64.6818C18.5652 64.2706 18.2454 63.7829 18.0299 63.247C17.8144 62.7111 17.7076 62.1377 17.7155 61.5602V12.8632H4.41909C3.84166 12.8712 3.26841 12.7643 2.73262 12.5489C2.19684 12.3334 1.7092 12.0137 1.29805 11.6082C0.886898 11.2027 0.560421 10.7195 0.337586 10.1867C0.114751 9.65399 0 9.08227 0 8.50479C0 7.92731 0.114751 7.35558 0.337586 6.82283C0.560421 6.29007 0.886898 5.80691 1.29805 5.4014C1.7092 4.99589 2.19684 4.67613 2.73262 4.46068C3.26841 4.24523 3.84166 4.1384 4.41909 4.14638" fill="#35AAA1"/>
<path d="M66.2335 26.0713C66.2302 27.2383 65.7651 28.3565 64.94 29.1817C64.1148 30.0068 62.9966 30.4718 61.8297 30.4751C60.0717 30.4744 58.3308 30.8201 56.7065 31.4924C55.0822 32.1648 53.6063 33.1507 52.3632 34.3937C51.1201 35.6367 50.1341 37.1126 49.4616 38.7368C48.7892 40.3611 48.4434 42.102 48.444 43.8599V61.561C48.452 62.1385 48.3452 62.7117 48.1297 63.2475C47.9143 63.7833 47.5945 64.2709 47.189 64.6821C46.7835 65.0932 46.3003 65.4197 45.7676 65.6425C45.2348 65.8654 44.6631 65.9801 44.0856 65.9801C43.5081 65.9801 42.9364 65.8654 42.4037 65.6425C41.8709 65.4197 41.3878 65.0932 40.9822 64.6821C40.5767 64.2709 40.257 63.7833 40.0415 63.2475C39.8261 62.7117 39.7192 62.1385 39.7272 61.561V43.8599C39.7312 37.9991 42.0611 32.3795 46.2052 28.2352C50.3493 24.091 55.9689 21.7609 61.8297 21.7567C62.4027 21.7485 62.9718 21.8539 63.5039 22.0667C64.0361 22.2796 64.5208 22.5957 64.9302 22.9968C65.3396 23.3979 65.6655 23.8761 65.8892 24.4038C66.1129 24.9314 66.2299 25.4982 66.2335 26.0713" fill="#35AAA1"/>
<path d="M109.646 44.1274V61.3827C109.667 61.9665 109.567 62.5484 109.353 63.092C109.139 63.6356 108.816 64.1294 108.402 64.5425C107.989 64.9556 107.496 65.2793 106.952 65.4933C106.409 65.7073 105.827 65.8071 105.243 65.7865C104.125 65.6887 103.08 65.1883 102.302 64.3785C101.525 63.5686 101.068 62.5041 101.016 61.3827C97.2261 64.555 92.9981 65.7874 87.9809 65.7874C75.5653 65.7874 65.7019 56.5381 65.7019 44.1224C65.6832 41.1915 66.2467 38.286 67.3597 35.5746C68.4727 32.8632 70.1131 30.3998 72.1856 28.3273C74.2582 26.2548 76.7216 24.6145 79.4331 23.5016C82.1446 22.3887 85.05 21.8253 87.9809 21.8441C100.397 21.8441 109.646 31.7067 109.646 44.1241V44.1274ZM101.016 44.1241C101.016 36.7263 95.3795 30.4743 87.9818 30.4743C84.3753 30.5209 80.9297 31.9744 78.3794 34.5248C75.8292 37.0752 74.3759 40.5209 74.3295 44.1274C74.3295 51.5235 80.579 57.1605 87.9785 57.1605C89.6992 57.1941 91.4091 56.8799 93.0055 56.2368C94.602 55.5937 96.0522 54.6349 97.2692 53.4179C98.4863 52.201 99.4451 50.7508 100.088 49.1544C100.732 47.558 101.046 45.8482 101.012 44.1274" fill="#35AAA1"/>
<path d="M159.126 43.7716V61.4719C159.134 62.0494 159.027 62.6228 158.812 63.1587C158.596 63.6945 158.276 64.1823 157.871 64.5935C157.465 65.0047 156.982 65.3313 156.449 65.5541C155.916 65.777 155.344 65.8918 154.767 65.8918C154.189 65.8918 153.617 65.777 153.085 65.5541C152.552 65.3313 152.069 65.0047 151.663 64.5935C151.257 64.1823 150.938 63.6945 150.722 63.1587C150.507 62.6228 150.4 62.0494 150.408 61.4719V43.7716C150.408 40.2215 148.997 36.8168 146.487 34.3065C143.977 31.7962 140.572 30.386 137.022 30.386C133.472 30.386 130.067 31.7962 127.557 34.3065C125.047 36.8168 123.636 40.2215 123.636 43.7716V61.4719C123.644 62.0493 123.538 62.6226 123.322 63.1583C123.107 63.6941 122.787 64.1818 122.381 64.5929C121.976 65.0041 121.493 65.3305 120.96 65.5534C120.427 65.7762 119.855 65.891 119.278 65.891C118.701 65.891 118.129 65.7762 117.596 65.5534C117.063 65.3305 116.58 65.0041 116.175 64.5929C115.769 64.1818 115.449 63.6941 115.234 63.1583C115.018 62.6226 114.912 62.0493 114.92 61.4719V43.7716C114.92 37.9094 117.248 32.2874 121.394 28.1422C125.539 23.9971 131.161 21.6683 137.023 21.6683C142.885 21.6683 148.507 23.9971 152.652 28.1422C156.797 32.2874 159.126 37.9094 159.126 43.7716Z" fill="#35AAA1"/>
<path d="M190.82 52.6667C190.828 56.1807 189.441 59.5542 186.965 62.0469C184.488 64.5397 181.123 65.9482 177.61 65.9632C174.724 65.8996 171.93 64.9422 169.611 63.2232C167.293 61.5041 165.565 59.1081 164.666 56.3656C163.873 54.0749 165.722 51.6993 168.012 51.1685C170.389 50.7293 172.063 52.4009 173.207 54.6032C174.44 56.8939 175.496 57.2447 177.609 57.2447C178.811 57.2447 179.965 56.7669 180.815 55.9165C181.666 55.0661 182.143 53.9127 182.143 52.71C182.143 51.5074 181.666 50.354 180.815 49.5035C179.965 48.6531 178.811 48.1754 177.609 48.1754C175.875 48.1744 174.158 47.8317 172.557 47.1668C170.955 46.502 169.501 45.528 168.276 44.3007C167.032 43.0883 166.048 41.636 165.381 40.0318C164.715 38.4276 164.382 36.7049 164.401 34.9681C164.399 33.2329 164.739 31.5144 165.402 29.9108C166.065 28.3073 167.038 26.8503 168.265 25.6234C169.492 24.3964 170.949 23.4236 172.552 22.7607C174.156 22.0977 175.874 21.7577 177.61 21.76C183.776 21.76 189.411 25.9863 190.291 30.9176C190.413 31.4784 190.424 32.0578 190.322 32.6226C190.22 33.1874 190.007 33.7266 189.696 34.2091C189.385 34.6917 188.982 35.1081 188.51 35.4347C188.038 35.7613 187.507 35.9915 186.946 36.1122C184.568 36.6421 182.542 35.0564 181.75 32.8549C181.221 31.4459 179.724 30.4776 177.61 30.4776C176.429 30.4937 175.302 30.974 174.473 31.8146C173.644 32.6552 173.179 33.7885 173.179 34.9693C173.179 36.1501 173.644 37.2834 174.473 38.1241C175.302 38.9647 176.429 39.445 177.61 39.4611C179.343 39.4621 181.06 39.8047 182.661 40.4694C184.263 41.1341 185.717 42.1078 186.942 43.3349C188.179 44.5526 189.159 46.0059 189.825 47.6089C190.49 49.2118 190.828 50.9319 190.817 52.6675" fill="#35AAA1"/>
<path d="M224.278 25.9813C224.284 26.5609 224.174 27.1358 223.955 27.6723C223.736 28.2089 223.412 28.6964 223.002 29.1062C222.592 29.516 222.105 29.84 221.568 30.0592C221.032 30.2784 220.457 30.3883 219.877 30.3827H212.128V61.4719C212.136 62.0493 212.029 62.6226 211.813 63.1583C211.598 63.6941 211.278 64.1818 210.873 64.5929C210.467 65.0041 209.984 65.3305 209.451 65.5534C208.919 65.7762 208.347 65.891 207.769 65.891C207.192 65.891 206.62 65.7762 206.087 65.5534C205.555 65.3305 205.071 65.0041 204.666 64.5929C204.26 64.1818 203.941 63.6941 203.725 63.1583C203.51 62.6226 203.403 62.0493 203.411 61.4719V30.3852H198.567C197.422 30.3693 196.328 29.9032 195.524 29.0875C194.72 28.2719 194.269 27.1723 194.269 26.0267C194.269 24.8812 194.72 23.7816 195.524 22.966C196.328 22.1503 197.422 21.6842 198.567 21.6683H203.411C203.333 18.6735 203.862 15.6938 204.967 12.9091C206.071 10.1243 207.729 7.59218 209.839 5.46545C212.149 3.10552 214.985 1.32505 218.115 0.269188C218.652 0.0691188 219.224 -0.021021 219.796 0.00411876C220.369 0.0292586 220.93 0.169166 221.448 0.415536C221.965 0.661907 222.428 1.00972 222.808 1.43833C223.189 1.86695 223.479 2.36762 223.663 2.91065C224.047 3.99689 223.985 5.19136 223.49 6.23184C222.995 7.27231 222.107 8.07375 221.021 8.46021C219.122 9.10631 217.402 10.1911 216.001 11.6266C214.71 12.951 213.7 14.5235 213.034 16.2491C212.368 17.9747 212.059 19.8174 212.126 21.6658H219.875C220.448 21.6578 221.017 21.7633 221.549 21.9763C222.081 22.1892 222.566 22.5054 222.975 22.9066C223.384 23.3078 223.71 23.7861 223.933 24.3138C224.157 24.8415 224.274 25.4083 224.277 25.9813" fill="#35AAA1"/>
<path d="M268.218 43.7708C268.214 44.3439 268.097 44.9107 267.873 45.4385C267.65 45.9662 267.324 46.4444 266.914 46.8456C266.505 47.2468 266.02 47.5629 265.488 47.7759C264.956 47.9888 264.387 48.0943 263.814 48.0863H233.433C234.339 50.7298 236.048 53.0244 238.321 54.6501C240.594 56.2758 243.318 57.1514 246.113 57.1547C249.62 57.2104 253.06 56.1973 255.978 54.2499C258.003 52.9292 260.732 54.1666 261.79 56.2764C262.846 58.4771 261.701 60.7661 259.676 62.0868C253.864 65.9632 249.371 65.8749 246.114 65.8749C240.252 65.8749 234.63 63.5461 230.485 59.401C226.34 55.2558 224.011 49.6337 224.011 43.7716C224.011 37.9094 226.34 32.2874 230.485 28.1422C234.63 23.9971 240.252 21.6683 246.114 21.6683C256.771 21.6683 268.219 29.4177 268.219 43.7708H268.218ZM233.434 39.3694H258.884C257.034 33.2033 251.398 30.386 246.115 30.386C243.332 30.389 240.618 31.2545 238.348 32.8632C236.077 34.472 234.36 36.745 233.434 39.3694" fill="#35AAA1"/>
<path d="M300 26.0713C299.997 27.2383 299.532 28.3565 298.706 29.1816C297.881 30.0068 296.763 30.4718 295.596 30.4751C293.838 30.4744 292.097 30.82 290.473 31.4924C288.848 32.1647 287.373 33.1506 286.129 34.3936C284.886 35.6366 283.9 37.1125 283.228 38.7367C282.555 40.361 282.209 42.1019 282.21 43.8599V61.561C282.218 62.1384 282.111 62.7117 281.895 63.2475C281.68 63.7833 281.36 64.2709 280.955 64.6821C280.549 65.0932 280.066 65.4197 279.533 65.6425C279 65.8654 278.429 65.9801 277.851 65.9801C277.274 65.9801 276.702 65.8654 276.169 65.6425C275.637 65.4197 275.153 65.0932 274.748 64.6821C274.342 64.2709 274.023 63.7833 273.807 63.2475C273.592 62.7117 273.485 62.1384 273.493 61.561V43.8599C273.497 37.9989 275.827 32.379 279.971 28.2347C284.115 24.0903 289.735 21.7604 295.596 21.7566C296.169 21.7487 296.738 21.8543 297.27 22.0672C297.802 22.2801 298.287 22.5962 298.696 22.9973C299.106 23.3983 299.431 23.8764 299.655 24.404C299.879 24.9316 299.996 25.4982 300 26.0713Z" fill="#35AAA1"/>
<path d="M16.3422 86.7999V77.344C16.3525 76.8526 16.555 76.3848 16.9062 76.041C17.2574 75.6971 17.7293 75.5045 18.2208 75.5045C18.7123 75.5045 19.1842 75.6971 19.5354 76.041C19.8866 76.3848 20.089 76.8526 20.0994 77.344V94.3935C20.0944 96.5367 19.3654 98.6155 18.0306 100.292C16.6959 101.969 14.8337 103.146 12.7461 103.632C10.6586 104.117 8.46821 103.883 6.53033 102.968C4.59245 102.052 3.02078 100.509 2.07029 98.5877C1.1198 96.6667 0.84627 94.4809 1.29407 92.385C1.74187 90.289 2.88472 88.4058 4.53722 87.0409C6.18972 85.676 8.25492 84.9095 10.3978 84.8658C12.5406 84.822 14.6353 85.5036 16.3422 86.7999V86.7999ZM16.3422 94.3935V94.356C16.3372 92.8221 15.7238 91.3529 14.6365 90.271C13.5493 89.189 12.0771 88.5827 10.5433 88.5852C9.00944 88.5877 7.53925 89.1987 6.45553 90.2842C5.3718 91.3697 4.76312 92.8409 4.76312 94.3747C4.76312 95.9086 5.3718 97.3797 6.45553 98.4652C7.53925 99.5507 9.00944 100.162 10.5433 100.164C12.0771 100.167 13.5493 99.5604 14.6365 98.4785C15.7238 97.3965 16.3372 95.9273 16.3422 94.3935Z" fill="#07294B"/>
<path d="M41.182 94.6209V102.063C41.1911 102.315 41.1482 102.566 41.056 102.8C40.9638 103.035 40.8242 103.247 40.646 103.426C40.4678 103.604 40.2548 103.743 40.0203 103.835C39.7858 103.927 39.5348 103.97 39.283 103.961C38.8012 103.918 38.3511 103.703 38.0162 103.354C37.6813 103.005 37.4842 102.546 37.4615 102.063C35.8866 103.367 33.8852 104.043 31.8419 103.961C30.5926 103.999 29.3484 103.785 28.1833 103.333C27.0182 102.88 25.956 102.198 25.0599 101.326C24.1638 100.455 23.452 99.4124 22.9669 98.2605C22.4818 97.1086 22.2332 95.8708 22.236 94.6209C22.228 93.3573 22.4709 92.1046 22.9508 90.9356C23.4307 89.7666 24.138 88.7046 25.0316 87.8111C25.9253 86.9176 26.9874 86.2105 28.1565 85.7308C29.3256 85.2511 30.5783 85.0084 31.8419 85.0167C33.0917 85.0139 34.3294 85.2624 35.4812 85.7474C36.6331 86.2324 37.6757 86.944 38.5471 87.8399C39.4184 88.7359 40.1008 89.7979 40.5536 90.9628C41.0064 92.1277 41.2204 93.3717 41.1829 94.6209H41.182ZM37.4615 94.6209C37.4809 93.8651 37.3507 93.1128 37.0784 92.4074C36.8061 91.702 36.3971 91.0574 35.8749 90.5105C35.3527 89.9637 34.7276 89.5255 34.0355 89.221C33.3434 88.9165 32.5979 88.7518 31.8419 88.7364C30.2876 88.7567 28.8026 89.3832 27.7034 90.4824C26.6042 91.5816 25.9777 93.0666 25.9574 94.6209C25.9731 95.3768 26.1379 96.122 26.4425 96.814C26.7471 97.5059 27.1853 98.1308 27.7321 98.6528C28.2789 99.1749 28.9235 99.5837 29.6288 99.8559C30.3341 100.128 31.0862 100.258 31.8419 100.239C32.5838 100.253 33.3209 100.118 34.0092 99.841C34.6975 99.5639 35.3228 99.1506 35.8475 98.626C36.3723 98.1014 36.7857 97.4763 37.063 96.7881C37.3404 96.0999 37.4759 95.3628 37.4615 94.6209" fill="#07294B"/>
<path d="M54.8994 98.3007C54.903 99.8155 54.3053 101.27 53.2377 102.345C52.1701 103.419 50.7197 104.026 49.2049 104.033C47.9604 104.006 46.755 103.593 45.755 102.851C44.7551 102.11 44.0098 101.077 43.622 99.8939C43.5624 99.6517 43.5529 99.3999 43.594 99.1538C43.6351 98.9078 43.726 98.6728 43.8611 98.4631C43.9962 98.2534 44.1727 98.0735 44.3797 97.9344C44.5868 97.7953 44.82 97.6999 45.0652 97.6541C46.0901 97.4641 46.8151 98.1865 47.305 99.1356C47.4434 99.5141 47.7075 99.8336 48.0531 100.041C48.3988 100.248 48.805 100.33 49.204 100.274C49.7225 100.274 50.2197 100.068 50.5863 99.7013C50.9529 99.3347 51.1589 98.8375 51.1589 98.319C51.1589 97.8006 50.9529 97.3033 50.5863 96.9367C50.2197 96.5701 49.7225 96.3642 49.204 96.3642C48.4566 96.3644 47.7164 96.2174 47.0259 95.9314C46.3353 95.6454 45.7078 95.2262 45.1794 94.6976C44.6439 94.1743 44.2202 93.5478 43.9338 92.856C43.6473 92.1643 43.5041 91.4216 43.5128 90.673C43.5118 89.9248 43.6585 89.1838 43.9444 88.4924C44.2302 87.801 44.6497 87.1728 45.1788 86.6438C45.7079 86.1148 46.3361 85.6954 47.0276 85.4096C47.719 85.1238 48.46 84.9773 49.2082 84.9784C51.8655 84.9784 54.2911 86.7999 54.6753 88.9256C54.7279 89.1675 54.7324 89.4174 54.6883 89.661C54.6443 89.9047 54.5526 90.1372 54.4185 90.3453C54.2844 90.5535 54.1106 90.7331 53.9071 90.874C53.7035 91.0148 53.4741 91.1142 53.2321 91.1662C52.7496 91.2542 52.2516 91.159 51.8356 90.8991C51.4196 90.6393 51.1156 90.2336 50.9831 89.7614C50.8291 89.4263 50.5746 89.1475 50.2548 88.9639C49.9351 88.7802 49.566 88.7007 49.199 88.7364C48.6857 88.7364 48.1933 88.9404 47.8303 89.3034C47.4673 89.6664 47.2634 90.1587 47.2634 90.6721C47.2634 91.1855 47.4673 91.6778 47.8303 92.0409C48.1933 92.4039 48.6857 92.6078 49.199 92.6078C49.9463 92.6077 50.6863 92.7549 51.3767 93.0408C52.0672 93.3268 52.6945 93.7459 53.2229 94.2743C53.7554 94.7999 54.1771 95.4268 54.4634 96.1181C54.7496 96.8093 54.8945 97.5509 54.8894 98.299" fill="#07294B"/>
<path d="M87.4808 94.6209V102.062C87.4898 102.314 87.4468 102.565 87.3545 102.799C87.2622 103.034 87.1225 103.246 86.9442 103.425C86.7659 103.603 86.5529 103.742 86.3183 103.834C86.0838 103.926 85.8328 103.969 85.581 103.959C85.0994 103.917 84.6496 103.701 84.3147 103.353C83.9798 103.004 83.7826 102.546 83.7595 102.063C82.1846 103.367 80.183 104.043 78.1399 103.959C76.8906 103.997 75.6464 103.784 74.4813 103.332C73.3162 102.879 72.2539 102.197 71.3577 101.326C70.4615 100.455 69.7496 99.4121 69.2643 98.2603C68.7791 97.1084 68.5305 95.8708 68.5332 94.6209C68.525 93.3571 68.7679 92.1042 69.2478 90.935C69.7277 89.7658 70.435 88.7036 71.3287 87.81C72.2224 86.9163 73.2847 86.2091 74.454 85.7293C75.6232 85.2495 76.8761 85.0067 78.1399 85.015C79.3899 85.012 80.6278 85.2603 81.7799 85.7454C82.9319 86.2304 83.9747 86.9422 84.8462 87.8383C85.7176 88.7345 86.3999 89.7968 86.8525 90.962C87.3052 92.1272 87.5188 93.3715 87.4808 94.6209V94.6209ZM83.7595 94.6209C83.7788 93.865 83.6486 93.1128 83.3764 92.4074C83.1041 91.702 82.6951 91.0574 82.1729 90.5105C81.6507 89.9637 81.0256 89.5255 80.3334 89.221C79.6413 88.9165 78.8959 88.7518 78.1399 88.7364C76.5856 88.7569 75.1007 89.3834 74.0016 90.4826C72.9024 91.5817 72.2759 93.0666 72.2554 94.6209C72.2711 95.3767 72.4361 96.1219 72.7407 96.8138C73.0453 97.5057 73.4836 98.1306 74.0303 98.6526C74.5771 99.1746 75.2216 99.5834 75.9269 99.8556C76.6321 100.128 77.3842 100.258 78.1399 100.239C78.8817 100.253 79.6189 100.118 80.3072 99.841C80.9955 99.5638 81.6207 99.1506 82.1455 98.626C82.6702 98.1014 83.0836 97.4763 83.361 96.7881C83.6383 96.0999 83.7739 95.3628 83.7595 94.6209V94.6209ZM75.2176 78.0289L78.1782 75.0683C78.3528 74.8938 78.56 74.7554 78.788 74.661C79.016 74.5666 79.2604 74.518 79.5072 74.5181C79.754 74.5181 79.9983 74.5668 80.2263 74.6612C80.4543 74.7557 80.6615 74.8942 80.8359 75.0687C81.0104 75.2432 81.1488 75.4504 81.2432 75.6785C81.3376 75.9065 81.3862 76.1509 81.3862 76.3976C81.3861 76.6444 81.3375 76.8888 81.243 77.1168C81.1485 77.3448 81.0101 77.5519 80.8355 77.7264L77.8758 80.687C77.5212 81.0296 77.0463 81.2192 76.5533 81.215C76.0604 81.2108 75.5888 81.0131 75.2402 80.6645C74.8915 80.3159 74.6938 79.8443 74.6896 79.3513C74.6854 78.8583 74.875 78.3834 75.2176 78.0289" fill="#07294B"/>
<path d="M108.523 103.999C108.52 106.154 107.787 108.245 106.444 109.93C105.101 111.616 103.226 112.797 101.126 113.282C99.0259 113.766 96.8236 113.525 94.8779 112.597C92.9322 111.67 91.3579 110.111 90.4115 108.175C90.3016 107.953 90.2371 107.712 90.2218 107.465C90.2064 107.219 90.2405 106.971 90.322 106.738C90.4035 106.505 90.5307 106.29 90.6964 106.106C90.862 105.923 91.0626 105.774 91.2864 105.669C91.7297 105.452 92.2408 105.417 92.7093 105.573C93.1779 105.729 93.5664 106.063 93.7912 106.502C94.3551 107.671 95.2962 108.616 96.4628 109.184C97.6293 109.752 98.9533 109.911 100.221 109.634C101.489 109.358 102.627 108.663 103.451 107.66C104.275 106.658 104.737 105.407 104.764 104.11V102.024C103.356 103.11 101.672 103.779 99.9026 103.955C98.1336 104.131 96.3506 103.807 94.7566 103.02C93.1625 102.233 91.8213 101.014 90.8855 99.5025C89.9498 97.9909 89.457 96.247 89.4632 94.4693C89.4632 91.9419 90.4672 89.5181 92.2542 87.7311C94.0413 85.944 96.4651 84.94 98.9924 84.94C101.52 84.94 103.944 85.944 105.731 87.7311C107.518 89.5181 108.522 91.9419 108.522 94.4693L108.523 103.999ZM104.764 94.4693C104.765 93.3278 104.426 92.212 103.792 91.2628C103.158 90.3136 102.257 89.5738 101.203 89.1368C100.148 88.6999 98.9877 88.5854 97.8682 88.8079C96.7486 89.0305 95.7202 89.58 94.913 90.387C94.1058 91.194 93.556 92.2222 93.3331 93.3417C93.1103 94.4612 93.2244 95.6216 93.6611 96.6762C94.0977 97.7308 94.8373 98.6323 95.7863 99.2665C96.7352 99.9008 97.851 100.239 98.9924 100.24C100.521 100.234 101.986 99.6248 103.067 98.5438C104.149 97.4628 104.759 95.9982 104.764 94.4693Z" fill="#07294B"/>
<path d="M126.071 86.8382V96.4058C126.05 98.431 125.231 100.366 123.791 101.791C122.352 103.215 120.408 104.014 118.383 104.014C116.358 104.014 114.414 103.215 112.975 101.791C111.535 100.366 110.716 98.431 110.695 96.4058V86.8382C110.695 86.3397 110.893 85.8615 111.245 85.509C111.598 85.1564 112.076 84.9584 112.575 84.9584C113.073 84.9584 113.551 85.1564 113.904 85.509C114.256 85.8615 114.455 86.3397 114.455 86.8382V96.3292C114.455 97.3709 114.868 98.37 115.605 99.1067C116.342 99.8433 117.341 100.257 118.383 100.257C119.424 100.257 120.423 99.8433 121.16 99.1067C121.897 98.37 122.311 97.3709 122.311 96.3292V86.8382C122.311 86.3397 122.509 85.8615 122.861 85.509C123.214 85.1564 123.692 84.9584 124.19 84.9584C124.689 84.9584 125.167 85.1564 125.52 85.509C125.872 85.8615 126.07 86.3397 126.07 86.8382" fill="#07294B"/>
<path d="M147.34 94.6209V102.063C147.35 102.315 147.307 102.566 147.214 102.8C147.122 103.035 146.983 103.247 146.804 103.426C146.626 103.604 146.413 103.743 146.179 103.835C145.944 103.927 145.693 103.97 145.441 103.961C144.96 103.918 144.51 103.703 144.175 103.354C143.84 103.005 143.643 102.546 143.62 102.063C142.045 103.367 140.044 104.043 138 103.961C136.751 103.999 135.507 103.785 134.342 103.332C133.177 102.88 132.115 102.197 131.219 101.326C130.323 100.455 129.611 99.4122 129.126 98.2603C128.64 97.1085 128.392 95.8708 128.394 94.6209C128.387 93.3573 128.63 92.1047 129.109 90.9357C129.589 89.7668 130.297 88.7048 131.19 87.8113C132.084 86.9179 133.146 86.2108 134.315 85.731C135.484 85.2513 136.737 85.0085 138 85.0167C139.25 85.0138 140.488 85.2622 141.64 85.7471C142.792 86.2321 143.834 86.9437 144.706 87.8397C145.577 88.7356 146.26 89.7977 146.712 90.9626C147.165 92.1276 147.379 93.3717 147.341 94.6209H147.34ZM143.62 94.6209C143.639 93.8651 143.509 93.1128 143.237 92.4074C142.965 91.702 142.556 91.0574 142.033 90.5105C141.511 89.9637 140.886 89.5255 140.194 89.221C139.502 88.9165 138.756 88.7518 138 88.7364C136.446 88.7569 134.961 89.3834 133.862 90.4826C132.763 91.5817 132.136 93.0666 132.116 94.6209C132.132 95.3767 132.297 96.1219 132.601 96.8138C132.906 97.5057 133.344 98.1306 133.891 98.6526C134.438 99.1746 135.082 99.5834 135.787 99.8557C136.493 100.128 137.245 100.258 138 100.239C138.742 100.253 139.479 100.118 140.168 99.841C140.856 99.5638 141.481 99.1506 142.006 98.626C142.531 98.1014 142.944 97.4763 143.221 96.7881C143.499 96.0999 143.634 95.3628 143.62 94.6209Z" fill="#07294B"/>
<path d="M161.054 98.3007C161.058 99.8155 160.46 101.27 159.393 102.345C158.325 103.419 156.874 104.026 155.36 104.033C154.115 104.006 152.91 103.593 151.91 102.851C150.91 102.11 150.165 101.077 149.777 99.8939C149.717 99.6517 149.708 99.3999 149.749 99.1538C149.79 98.9078 149.881 98.6728 150.016 98.4631C150.151 98.2534 150.327 98.0735 150.535 97.9344C150.742 97.7953 150.975 97.6999 151.22 97.6541C152.245 97.4641 152.97 98.1865 153.46 99.1356C153.598 99.5141 153.862 99.8336 154.208 100.041C154.554 100.248 154.96 100.33 155.359 100.274C155.877 100.274 156.375 100.068 156.741 99.7013C157.108 99.3347 157.314 98.8375 157.314 98.319C157.314 97.8006 157.108 97.3033 156.741 96.9367C156.375 96.5701 155.877 96.3642 155.359 96.3642C154.611 96.3644 153.871 96.2173 153.181 95.9313C152.49 95.6454 151.863 95.2262 151.334 94.6976C150.799 94.1743 150.375 93.5478 150.089 92.856C149.802 92.1643 149.659 91.4216 149.668 90.673C149.667 89.9248 149.813 89.1838 150.099 88.4924C150.385 87.801 150.805 87.1728 151.334 86.6438C151.863 86.1148 152.491 85.6954 153.182 85.4096C153.874 85.1238 154.615 84.9773 155.363 84.9784C158.02 84.9784 160.446 86.7999 160.83 88.9256C160.883 89.1675 160.887 89.4174 160.843 89.661C160.799 89.9047 160.707 90.1372 160.573 90.3453C160.439 90.5535 160.265 90.7331 160.062 90.874C159.858 91.0148 159.629 91.1142 159.387 91.1662C158.906 91.2518 158.41 91.1555 157.996 90.896C157.582 90.6365 157.28 90.2324 157.147 89.7622C156.993 89.4271 156.738 89.1484 156.419 88.9647C156.099 88.781 155.73 88.7015 155.363 88.7373C154.85 88.7373 154.357 88.9412 153.994 89.3042C153.631 89.6672 153.427 90.1596 153.427 90.673C153.427 91.1863 153.631 91.6787 153.994 92.0417C154.357 92.4047 154.85 92.6086 155.363 92.6086C156.11 92.6086 156.85 92.7557 157.541 93.0416C158.231 93.3276 158.858 93.7467 159.387 94.2752C159.919 94.8007 160.341 95.4276 160.627 96.1189C160.914 96.8101 161.058 97.5517 161.053 98.2999" fill="#07294B"/>
<path d="M174.657 94.6209C174.657 92.0936 175.661 89.6698 177.448 87.8827C179.235 86.0956 181.659 85.0917 184.186 85.0917C186.714 85.0917 189.138 86.0956 190.925 87.8827C192.712 89.6698 193.716 92.0936 193.716 94.6209V111.669C193.705 112.16 193.503 112.628 193.152 112.972C192.801 113.316 192.329 113.508 191.837 113.508C191.346 113.508 190.874 113.316 190.523 112.972C190.171 112.628 189.969 112.16 189.959 111.669V102.213C188.544 103.285 186.859 103.942 185.092 104.108C183.325 104.275 181.546 103.946 179.957 103.157C178.367 102.368 177.028 101.151 176.092 99.6435C175.156 98.1357 174.659 96.3966 174.657 94.6218V94.6209ZM178.416 94.6218C178.411 96.1524 179.014 97.6223 180.093 98.7081C181.172 99.7939 182.638 100.407 184.169 100.412C185.699 100.417 187.169 99.8134 188.255 98.7346C189.341 97.6558 189.954 96.1899 189.959 94.6593V94.6218C189.959 93.0911 189.35 91.6232 188.268 90.5409C187.186 89.4586 185.718 88.8505 184.187 88.8505C182.657 88.8505 181.189 89.4586 180.106 90.5409C179.024 91.6232 178.416 93.0911 178.416 94.6218" fill="#07294B"/>
<path d="M211.226 86.8382V96.4058C211.226 98.4447 210.416 100.4 208.974 101.842C207.533 103.284 205.577 104.094 203.538 104.094C201.499 104.094 199.544 103.284 198.102 101.842C196.661 100.4 195.851 98.4447 195.851 96.4058V86.8382C195.861 86.3466 196.063 85.8786 196.415 85.5346C196.766 85.1906 197.238 84.9979 197.73 84.9979C198.222 84.9979 198.694 85.1906 199.045 85.5346C199.397 85.8786 199.599 86.3466 199.609 86.8382V96.3291C199.609 97.3711 200.023 98.3704 200.76 99.1072C201.497 99.844 202.496 100.258 203.538 100.258C204.58 100.258 205.58 99.844 206.316 99.1072C207.053 98.3704 207.467 97.3711 207.467 96.3291V86.8382C207.478 86.3466 207.68 85.8786 208.031 85.5346C208.383 85.1906 208.855 84.9979 209.347 84.9979C209.838 84.9979 210.31 85.1906 210.662 85.5346C211.013 85.8786 211.216 86.3466 211.226 86.8382" fill="#07294B"/>
<path d="M232.57 94.4693C232.569 94.7162 232.519 94.9603 232.422 95.1876C232.326 95.4149 232.186 95.6209 232.009 95.7937C231.833 95.9666 231.624 96.1028 231.395 96.1945C231.166 96.2863 230.921 96.3317 230.674 96.3283H217.575C217.966 97.4681 218.703 98.4574 219.683 99.1584C220.663 99.8594 221.837 100.237 223.042 100.239C224.553 100.263 226.035 99.8274 227.292 98.989C227.512 98.8734 227.753 98.8043 228.002 98.7859C228.25 98.7675 228.499 98.8002 228.734 98.882C228.968 98.9637 229.184 99.0929 229.367 99.2613C229.55 99.4298 229.696 99.634 229.797 99.8614C229.985 100.317 229.996 100.827 229.828 101.291C229.659 101.755 229.323 102.139 228.886 102.367C227.175 103.551 225.117 104.126 223.04 104C220.513 104 218.089 102.996 216.302 101.209C214.515 99.4223 213.511 96.9986 213.511 94.4714C213.511 91.9442 214.515 89.5205 216.302 87.7335C218.089 85.9465 220.513 84.9426 223.04 84.9426C224.298 84.9181 225.548 85.1479 226.716 85.6181C227.883 86.0883 228.943 86.7894 229.833 87.6792C230.722 88.569 231.423 89.6293 231.894 90.7964C232.364 91.9636 232.593 93.2137 232.569 94.4718L232.57 94.4693ZM217.57 92.5728H228.542C228.175 91.4141 227.437 90.4079 226.443 89.7086C225.449 89.0093 224.253 88.6555 223.038 88.7014C221.838 88.7025 220.668 89.0753 219.689 89.7686C218.71 90.4619 217.969 91.4415 217.57 92.5728Z" fill="#07294B"/>
<path d="M253.917 94.4693V102.1C253.922 102.35 253.877 102.599 253.785 102.832C253.693 103.064 253.556 103.276 253.381 103.455C253.206 103.634 252.997 103.776 252.766 103.873C252.535 103.97 252.288 104.02 252.037 104.02C251.787 104.02 251.54 103.97 251.309 103.873C251.078 103.776 250.869 103.634 250.694 103.455C250.519 103.276 250.382 103.064 250.29 102.832C250.198 102.599 250.153 102.35 250.158 102.1V94.4693C250.158 92.9387 249.55 91.4709 248.468 90.3887C247.386 89.3065 245.918 88.6985 244.387 88.6985C242.857 88.6985 241.389 89.3065 240.307 90.3887C239.224 91.4709 238.616 92.9387 238.616 94.4693V102.1C238.622 102.35 238.577 102.599 238.485 102.832C238.393 103.064 238.255 103.276 238.08 103.455C237.905 103.634 237.696 103.776 237.466 103.873C237.235 103.97 236.987 104.02 236.737 104.02C236.487 104.02 236.239 103.97 236.009 103.873C235.778 103.776 235.569 103.634 235.394 103.455C235.219 103.276 235.081 103.064 234.989 102.832C234.897 102.599 234.852 102.35 234.858 102.1V94.4693C234.858 91.9419 235.862 89.5181 237.649 87.7311C239.436 85.944 241.86 84.94 244.387 84.94C246.914 84.94 249.338 85.944 251.125 87.7311C252.912 89.5181 253.916 91.9419 253.916 94.4693" fill="#07294B"/>
<path d="M266.719 86.8382C266.717 87.3412 266.517 87.8232 266.161 88.179C265.805 88.5348 265.323 88.7354 264.82 88.7372H262.125V102.138C262.13 102.388 262.085 102.636 261.993 102.869C261.901 103.101 261.764 103.313 261.589 103.492C261.414 103.671 261.205 103.813 260.974 103.91C260.744 104.006 260.496 104.056 260.246 104.056C259.996 104.056 259.748 104.006 259.518 103.91C259.287 103.813 259.078 103.671 258.904 103.492C258.729 103.313 258.591 103.101 258.499 102.869C258.407 102.636 258.362 102.388 258.367 102.138V88.7372H255.634C255.137 88.7276 254.664 88.5232 254.316 88.1681C253.968 87.8129 253.773 87.3354 253.774 86.8382C253.775 86.3451 253.971 85.8725 254.32 85.524C254.669 85.1755 255.141 84.9796 255.634 84.9791H258.367V77.3847C258.378 76.8934 258.58 76.4256 258.931 76.0817C259.283 75.7379 259.755 75.5453 260.246 75.5453C260.738 75.5453 261.21 75.7379 261.561 76.0817C261.912 76.4256 262.114 76.8934 262.125 77.3847V84.9783H264.82C265.067 84.9747 265.313 85.02 265.542 85.1116C265.771 85.2033 265.98 85.3395 266.157 85.5123C266.333 85.6851 266.474 85.8912 266.57 86.1186C266.667 86.3461 266.717 86.5903 266.719 86.8373" fill="#07294B"/>
<path d="M285.707 94.4693C285.706 94.7162 285.655 94.9603 285.559 95.1876C285.463 95.4149 285.322 95.6209 285.146 95.7938C284.97 95.9666 284.761 96.1028 284.532 96.1945C284.303 96.2863 284.057 96.3318 283.811 96.3283H270.712C271.103 97.4688 271.84 98.4586 272.821 99.1596C273.802 99.8607 274.977 100.238 276.183 100.239C277.693 100.263 279.176 99.8274 280.433 98.989C280.653 98.8734 280.894 98.8043 281.142 98.7859C281.39 98.7675 281.64 98.8002 281.874 98.882C282.109 98.9638 282.325 99.0929 282.508 99.2614C282.691 99.4298 282.837 99.6341 282.938 99.8614C283.126 100.317 283.137 100.827 282.968 101.291C282.8 101.755 282.464 102.139 282.027 102.367C280.316 103.551 278.258 104.126 276.181 104C273.654 104 271.23 102.996 269.443 101.209C267.656 99.4223 266.652 96.9986 266.652 94.4714C266.652 91.9442 267.656 89.5205 269.443 87.7335C271.23 85.9465 273.654 84.9426 276.181 84.9426C277.439 84.9185 278.688 85.1484 279.855 85.6186C281.022 86.0889 282.082 86.7897 282.971 87.6792C283.86 88.5687 284.561 89.6286 285.031 90.7953C285.501 91.9621 285.731 93.2117 285.707 94.4693V94.4693ZM270.708 92.5703H281.682C281.315 91.4116 280.577 90.4054 279.583 89.7061C278.589 89.0068 277.393 88.653 276.178 88.6989C274.978 88.7 273.808 89.0729 272.829 89.7661C271.85 90.4594 271.11 91.439 270.71 92.5703" fill="#07294B"/>
<path d="M299.118 98.3007C299.122 99.8155 298.524 101.27 297.457 102.345C296.389 103.419 294.939 104.026 293.424 104.033C292.179 104.006 290.974 103.593 289.974 102.851C288.974 102.11 288.229 101.077 287.841 99.8939C287.781 99.6517 287.772 99.3999 287.813 99.1538C287.854 98.9078 287.945 98.6728 288.08 98.4631C288.215 98.2534 288.392 98.0735 288.599 97.9344C288.806 97.7953 289.039 97.6999 289.284 97.6541C290.309 97.4641 291.034 98.1865 291.524 99.1356C291.662 99.5141 291.926 99.8336 292.272 100.041C292.618 100.248 293.024 100.33 293.423 100.274C293.941 100.274 294.439 100.068 294.805 99.7013C295.172 99.3347 295.378 98.8375 295.378 98.319C295.378 97.8006 295.172 97.3033 294.805 96.9367C294.439 96.5701 293.941 96.3642 293.423 96.3642C292.676 96.3644 291.935 96.2174 291.245 95.9314C290.554 95.6454 289.927 95.2262 289.398 94.6976C288.863 94.1743 288.439 93.5478 288.153 92.856C287.866 92.1643 287.723 91.4216 287.732 90.673C287.731 89.9248 287.877 89.1838 288.163 88.4924C288.449 87.801 288.869 87.1728 289.398 86.6438C289.927 86.1148 290.555 85.6954 291.247 85.4096C291.938 85.1238 292.679 84.9773 293.427 84.9784C296.085 84.9784 298.51 86.7999 298.894 88.9256C298.947 89.1675 298.951 89.4174 298.907 89.661C298.863 89.9047 298.772 90.1372 298.638 90.3453C298.503 90.5535 298.33 90.7331 298.126 90.874C297.922 91.0148 297.693 91.1142 297.451 91.1662C296.97 91.2518 296.474 91.1555 296.06 90.896C295.647 90.6365 295.344 90.2324 295.211 89.7622C295.057 89.4271 294.803 89.1484 294.483 88.9647C294.163 88.781 293.794 88.7015 293.427 88.7373C292.914 88.7373 292.421 88.9412 292.058 89.3042C291.695 89.6672 291.492 90.1596 291.492 90.673C291.492 91.1863 291.695 91.6787 292.058 92.0417C292.421 92.4047 292.914 92.6086 293.427 92.6086C294.175 92.6086 294.914 92.7557 295.605 93.0416C296.295 93.3276 296.923 93.7467 297.451 94.2752C297.984 94.8007 298.405 95.4277 298.692 96.1189C298.978 96.8101 299.123 97.5517 299.118 98.2999" fill="#07294B"/>
</svg>
