<svg width="50" height="50" viewBox="0 0 50 50" fill="none" xmlns="http://www.w3.org/2000/svg">
<path d="M26.5 21.9444C15.15 20.3056 11.5 18.6111 11.5 15.9722C11.5 12.9444 16.55 10.8333 25 10.8333C32.1 10.8333 35.65 12.3333 36.95 14.7222C37.55 15.8333 39.2 16.6667 41.3 16.6667H42.8C46.1 16.6667 48.45 14.8611 47.3 13.1389C45.2 9.86111 40.3 7.13889 32.5 6.08333V4.16667C32.5 1.86111 29.15 0 25 0C20.85 0 17.5 1.86111 17.5 4.16667V6C7.8 7.16667 0 10.6667 0 16.0278C0 22.4444 9.55 25.6389 23.5 27.5C36 29.1667 38.5 31.6111 38.5 34.1944C38.5 36.1111 36.05 39.1667 25 39.1667C16.75 39.1667 12.5 37.5278 10.85 35.1944C10.1 34.1111 8.4 33.3333 6.35 33.3333H4.95C1.6 33.3333 -0.75 35.2222 0.5 36.9444C3.35 40.8056 10 43.0833 17.5 43.9722V45.8333C17.5 48.1389 20.85 50 25 50C29.15 50 32.5 48.1389 32.5 45.8333V44.0278C42.25 43 50 39.8611 50 34.1667C50 26.2778 37.85 23.5833 26.5 21.9444Z" fill="url(#paint0_linear_152_319)"/>
<defs>
<linearGradient id="paint0_linear_152_319" x1="25" y1="0" x2="25" y2="50" gradientUnits="userSpaceOnUse">
<stop stop-color="#195994"/>
<stop offset="1" stop-color="#498CCA" stop-opacity="0.66"/>
</linearGradient>
</defs>
</svg>
