<svg width="50" height="50" viewBox="0 0 50 50" fill="none" xmlns="http://www.w3.org/2000/svg">
<path d="M47.3421 16.7346L33.204 15.4514L27.6831 1.856C26.69 -0.618668 23.3015 -0.618668 22.3083 1.856L16.7874 15.482L2.67852 16.7346C0.107957 16.9484 -0.94364 20.3091 1.0135 22.0811L11.7339 31.7965L8.52072 46.2168C7.9365 48.8442 10.6531 50.9217 12.8732 49.5163L24.9957 41.8785L37.1183 49.5469C39.3383 50.9522 42.0549 48.8747 41.4707 46.2473L38.2575 31.7965L48.9779 22.0811C50.9351 20.3091 49.9127 16.9484 47.3421 16.7346ZM24.9957 36.1653L14.0124 43.1005L16.9335 30.0245L7.23544 21.2256L20.0299 20.0647L24.9957 7.75244L29.9908 20.0952L42.7852 21.2562L33.0872 30.055L36.0083 43.1311L24.9957 36.1653Z" fill="url(#paint0_linear_152_320)"/>
<defs>
<linearGradient id="paint0_linear_152_320" x1="25" y1="0" x2="25" y2="50" gradientUnits="userSpaceOnUse">
<stop stop-color="#195994"/>
<stop offset="0.958333" stop-color="#498CCA" stop-opacity="0.66"/>
<stop offset="1" stop-opacity="0"/>
</linearGradient>
</defs>
</svg>
