<svg width="365" height="28" viewBox="0 0 365 28" fill="none" xmlns="http://www.w3.org/2000/svg">
<path d="M11.136 20.8C11.136 20.976 11.168 21.096 11.232 21.16C11.312 21.224 11.472 21.28 11.712 21.328L12.6 21.52V22H4.77602V21.52L5.66402 21.328C5.90402 21.28 6.05602 21.224 6.12002 21.16C6.20002 21.096 6.24002 20.976 6.24002 20.8V5.872H5.68802C4.71202 5.872 3.95202 6.032 3.40802 6.352C2.88002 6.672 2.47202 7.088 2.18402 7.6C1.91202 8.112 1.56802 8.928 1.15202 10.048H0.624023V5.2H16.752V10.048H16.224C15.808 8.928 15.456 8.112 15.168 7.6C14.896 7.088 14.488 6.672 13.944 6.352C13.416 6.032 12.664 5.872 11.688 5.872H11.136V20.8Z" fill="black"/>
<path d="M27.3992 22C26.9512 22 26.6312 21.912 26.4392 21.736C26.2632 21.544 26.1752 21.232 26.1752 20.8V20.68C25.1032 21.72 23.5752 22.24 21.5912 22.24C20.5512 22.24 19.7352 22.008 19.1432 21.544C18.5672 21.064 18.2792 20.328 18.2792 19.336C18.2792 18.344 18.5672 17.568 19.1432 17.008C19.7352 16.448 20.5912 16.048 21.7112 15.808C22.8312 15.568 24.3192 15.424 26.1752 15.376V13.624C26.1752 12.728 25.9992 12.088 25.6472 11.704C25.2952 11.304 24.6792 11.104 23.7992 11.104C23.0632 11.104 22.3752 11.208 21.7352 11.416C21.1112 11.608 20.4712 11.904 19.8152 12.304L19.5032 11.848C20.2712 11.304 21.1912 10.872 22.2632 10.552C23.3512 10.216 24.5672 10.048 25.9112 10.048C27.7192 10.048 29.0072 10.408 29.7752 11.128C30.5432 11.832 30.9272 12.856 30.9272 14.2V20.848C30.9272 21.024 30.9592 21.144 31.0232 21.208C31.1032 21.272 31.2632 21.328 31.5032 21.376L32.3432 21.568V22H27.3992ZM24.2792 20.728C24.9672 20.728 25.5992 20.456 26.1752 19.912V16.024C25.2792 16.088 24.5992 16.232 24.1352 16.456C23.6712 16.664 23.3512 16.968 23.1752 17.368C23.0152 17.768 22.9352 18.312 22.9352 19C22.9352 19.608 23.0392 20.048 23.2472 20.32C23.4712 20.592 23.8152 20.728 24.2792 20.728Z" fill="black"/>
<path d="M48.8685 20.848C48.8685 21.024 48.9005 21.144 48.9645 21.208C49.0445 21.272 49.2045 21.328 49.4445 21.376L50.2845 21.568V22H45.2925C44.8605 22 44.5485 21.888 44.3565 21.664C44.1645 21.44 44.0685 21.104 44.0685 20.656V13.36C44.0685 12.64 43.9485 12.128 43.7085 11.824C43.4845 11.52 43.1005 11.368 42.5565 11.368C41.5965 11.368 40.6125 11.768 39.6045 12.568V20.848C39.6045 21.024 39.6365 21.152 39.7005 21.232C39.7805 21.296 39.9325 21.352 40.1565 21.4L40.9725 21.568V22H33.3885V21.568L34.2285 21.376C34.4685 21.328 34.6205 21.272 34.6845 21.208C34.7645 21.144 34.8045 21.024 34.8045 20.848V11.776C34.8045 11.6 34.7645 11.48 34.6845 11.416C34.6205 11.352 34.4685 11.296 34.2285 11.248L33.3885 11.056V10.624L39.1485 9.904H39.5565V11.848C40.1645 11.352 40.9085 10.928 41.7885 10.576C42.6685 10.224 43.6445 10.048 44.7165 10.048C46.2045 10.048 47.2685 10.36 47.9085 10.984C48.5485 11.608 48.8685 12.544 48.8685 13.792V20.848Z" fill="black"/>
<path d="M57.2445 21.712C57.9965 21.712 58.5485 21.6 58.9005 21.376C59.2685 21.152 59.4525 20.76 59.4525 20.2C59.4525 19.816 59.3565 19.504 59.1645 19.264C58.9725 19.024 58.6685 18.808 58.2525 18.616C57.8365 18.424 57.1725 18.16 56.2605 17.824C54.7085 17.264 53.6045 16.688 52.9485 16.096C52.2925 15.488 51.9645 14.656 51.9645 13.6C51.9645 12.4 52.4125 11.512 53.3085 10.936C54.2045 10.344 55.5645 10.048 57.3885 10.048C58.3165 10.048 59.2285 10.144 60.1245 10.336C61.0205 10.512 61.7165 10.72 62.2125 10.96L61.9245 13.84H61.5165C61.0845 12.768 60.5645 11.96 59.9565 11.416C59.3485 10.856 58.4685 10.576 57.3165 10.576C56.5805 10.576 56.0125 10.68 55.6125 10.888C55.2125 11.08 55.0125 11.44 55.0125 11.968C55.0125 12.336 55.1005 12.632 55.2765 12.856C55.4685 13.08 55.7565 13.288 56.1405 13.48C56.5405 13.672 57.1965 13.952 58.1085 14.32C59.4205 14.848 60.4125 15.304 61.0845 15.688C61.7565 16.072 62.2525 16.512 62.5725 17.008C62.8925 17.504 63.0525 18.128 63.0525 18.88C63.0525 20.08 62.5885 20.952 61.6605 21.496C60.7485 22.024 59.3725 22.288 57.5325 22.288C56.5565 22.288 55.5325 22.192 54.4605 22C53.4045 21.824 52.6125 21.616 52.0845 21.376L52.4205 18.112H52.8285C53.1165 19.376 53.6285 20.296 54.3645 20.872C55.1005 21.432 56.0605 21.712 57.2445 21.712Z" fill="black"/>
<path d="M66.1885 10.336V8.416C66.1885 7.088 66.5965 6.104 67.4125 5.464C68.2285 4.808 69.5805 4.48 71.4685 4.48C73.0205 4.48 74.2925 4.72 75.2845 5.2L74.9965 8.344H74.4925C74.1725 7.432 73.9165 6.776 73.7245 6.376C73.5325 5.96 73.2765 5.64 72.9565 5.416C72.6525 5.176 72.2285 5.056 71.6845 5.056C71.2045 5.056 70.8525 5.152 70.6285 5.344C70.4045 5.536 70.2925 5.832 70.2925 6.232C70.2925 6.584 70.3245 6.904 70.3885 7.192C70.4525 7.464 70.5405 7.784 70.6525 8.152C70.7325 8.392 70.7965 8.64 70.8445 8.896C70.9085 9.136 70.9405 9.384 70.9405 9.64V10.336H73.8445V10.96H70.9405V20.824C70.9405 21 70.9725 21.12 71.0365 21.184C71.1165 21.248 71.2765 21.304 71.5165 21.352L72.4045 21.568V22H64.7725V21.568L65.6125 21.376C65.8525 21.328 66.0045 21.272 66.0685 21.208C66.1485 21.144 66.1885 21.024 66.1885 20.848V10.96H64.6285V10.336H66.1885Z" fill="black"/>
<path d="M81.0971 15.856C81.1131 17.632 81.3931 18.984 81.9371 19.912C82.4971 20.84 83.5372 21.304 85.0572 21.304C85.8092 21.304 86.4731 21.192 87.0491 20.968C87.6411 20.744 88.2491 20.424 88.8731 20.008L89.1852 20.464C87.6971 21.68 85.7292 22.288 83.2812 22.288C81.0732 22.288 79.3291 21.76 78.0491 20.704C76.7851 19.632 76.1531 18.072 76.1531 16.024C76.1531 14.088 76.8011 12.608 78.0971 11.584C79.3931 10.56 81.2092 10.048 83.5452 10.048C84.8732 10.048 85.9932 10.256 86.9052 10.672C87.8172 11.088 88.4892 11.648 88.9212 12.352C89.3692 13.04 89.5931 13.808 89.5931 14.656C89.5931 15.088 89.5532 15.488 89.4732 15.856H81.0971ZM83.4011 10.624C82.5211 10.624 81.9212 10.992 81.6012 11.728C81.2812 12.464 81.1131 13.632 81.0971 15.232H85.1292V13.432C85.1292 12.456 85.0092 11.744 84.7691 11.296C84.5451 10.848 84.0891 10.624 83.4011 10.624Z" fill="black"/>
<path d="M97.494 12.256C98.886 10.832 100.302 10.12 101.742 10.12C102.27 10.12 102.686 10.184 102.99 10.312L102.63 14.056H102.462L97.542 12.976V20.848C97.542 21.024 97.574 21.152 97.638 21.232C97.718 21.296 97.87 21.352 98.094 21.4L98.91 21.568V22H91.326V21.568L92.166 21.376C92.406 21.328 92.558 21.272 92.622 21.208C92.702 21.144 92.742 21.024 92.742 20.848V11.776C92.742 11.6 92.702 11.48 92.622 11.416C92.558 11.352 92.406 11.296 92.166 11.248L91.326 11.056V10.624L97.086 9.904H97.494V12.256Z" fill="black"/>
<path d="M123.056 22C122.624 22 122.312 21.888 122.12 21.664C121.928 21.44 121.832 21.104 121.832 20.656C120.808 21.744 119.416 22.288 117.656 22.288C115.896 22.288 114.488 21.784 113.432 20.776C112.392 19.768 111.872 18.192 111.872 16.048C111.872 13.984 112.392 12.472 113.432 11.512C114.472 10.536 115.88 10.048 117.656 10.048C118.616 10.048 119.416 10.16 120.056 10.384C120.712 10.608 121.288 10.896 121.784 11.248V6.352C121.784 6.176 121.744 6.056 121.664 5.992C121.6 5.928 121.448 5.872 121.208 5.824L120.368 5.632V5.2L126.128 4.48H126.584V20.848C126.584 21.024 126.616 21.144 126.68 21.208C126.76 21.272 126.92 21.328 127.16 21.376L128 21.568V22H123.056ZM119.072 21.256C120.016 21.256 120.92 20.808 121.784 19.912V11.968C121.016 11.36 120.152 11.056 119.192 11.056C118.312 11.056 117.696 11.448 117.344 12.232C116.992 13 116.816 14.272 116.816 16.048C116.816 17.312 116.88 18.32 117.008 19.072C117.152 19.808 117.384 20.36 117.704 20.728C118.04 21.08 118.496 21.256 119.072 21.256Z" fill="black"/>
<path d="M138.61 22C138.162 22 137.842 21.912 137.65 21.736C137.474 21.544 137.386 21.232 137.386 20.8V20.68C136.314 21.72 134.786 22.24 132.802 22.24C131.762 22.24 130.946 22.008 130.354 21.544C129.778 21.064 129.49 20.328 129.49 19.336C129.49 18.344 129.778 17.568 130.354 17.008C130.946 16.448 131.802 16.048 132.922 15.808C134.042 15.568 135.53 15.424 137.386 15.376V13.624C137.386 12.728 137.21 12.088 136.858 11.704C136.506 11.304 135.89 11.104 135.01 11.104C134.274 11.104 133.586 11.208 132.946 11.416C132.322 11.608 131.682 11.904 131.026 12.304L130.714 11.848C131.482 11.304 132.402 10.872 133.474 10.552C134.562 10.216 135.778 10.048 137.122 10.048C138.93 10.048 140.218 10.408 140.986 11.128C141.754 11.832 142.138 12.856 142.138 14.2V20.848C142.138 21.024 142.17 21.144 142.234 21.208C142.314 21.272 142.474 21.328 142.714 21.376L143.554 21.568V22H138.61ZM135.49 20.728C136.178 20.728 136.81 20.456 137.386 19.912V16.024C136.49 16.088 135.81 16.232 135.346 16.456C134.882 16.664 134.562 16.968 134.386 17.368C134.226 17.768 134.146 18.312 134.146 19C134.146 19.608 134.25 20.048 134.458 20.32C134.682 20.592 135.026 20.728 135.49 20.728Z" fill="black"/>
<path d="M150.455 21.712C151.207 21.712 151.759 21.6 152.111 21.376C152.479 21.152 152.663 20.76 152.663 20.2C152.663 19.816 152.567 19.504 152.375 19.264C152.183 19.024 151.879 18.808 151.463 18.616C151.047 18.424 150.383 18.16 149.471 17.824C147.919 17.264 146.815 16.688 146.159 16.096C145.503 15.488 145.175 14.656 145.175 13.6C145.175 12.4 145.623 11.512 146.519 10.936C147.415 10.344 148.775 10.048 150.599 10.048C151.527 10.048 152.439 10.144 153.335 10.336C154.231 10.512 154.927 10.72 155.423 10.96L155.135 13.84H154.727C154.295 12.768 153.775 11.96 153.167 11.416C152.559 10.856 151.679 10.576 150.527 10.576C149.791 10.576 149.223 10.68 148.823 10.888C148.423 11.08 148.223 11.44 148.223 11.968C148.223 12.336 148.311 12.632 148.487 12.856C148.679 13.08 148.967 13.288 149.351 13.48C149.751 13.672 150.407 13.952 151.319 14.32C152.631 14.848 153.623 15.304 154.295 15.688C154.967 16.072 155.463 16.512 155.783 17.008C156.103 17.504 156.263 18.128 156.263 18.88C156.263 20.08 155.799 20.952 154.871 21.496C153.959 22.024 152.583 22.288 150.743 22.288C149.767 22.288 148.743 22.192 147.671 22C146.615 21.824 145.823 21.616 145.295 21.376L145.631 18.112H146.039C146.327 19.376 146.839 20.296 147.575 20.872C148.311 21.432 149.271 21.712 150.455 21.712Z" fill="black"/>
<path d="M177.088 0.112C177.456 0.288 177.768 0.568 178.024 0.952C178.28 1.336 178.416 1.752 178.432 2.2C177.744 2.52 176.864 2.832 175.792 3.136C174.736 3.424 173.808 3.632 173.008 3.76L172.888 3.496L173.8 2.824C173.944 2.712 174.408 2.36 175.192 1.768C175.976 1.16 176.608 0.608 177.088 0.112ZM174.4 21.52L175.432 21.424C175.656 21.392 175.768 21.304 175.768 21.16C175.768 21.08 175.744 20.984 175.696 20.872L174.112 17.368H168.544L167.104 20.872C167.056 20.984 167.032 21.08 167.032 21.16C167.032 21.304 167.144 21.392 167.368 21.424L168.4 21.52V22H164.752V21.52L165.64 21.424C165.832 21.408 165.968 21.36 166.048 21.28C166.128 21.2 166.216 21.056 166.312 20.848L172.96 4.936H173.728L180.76 20.848C180.856 21.056 180.944 21.2 181.024 21.28C181.104 21.36 181.24 21.408 181.432 21.424L182.32 21.52V22H174.4V21.52ZM173.8 16.648L171.208 10.912L168.832 16.648H173.8Z" fill="black"/>
<path d="M196.95 10.504C196.31 10.328 195.75 10.24 195.27 10.24C194.822 10.24 194.462 10.328 194.19 10.504C196.222 11.08 197.238 12.232 197.238 13.96C197.238 15.352 196.686 16.36 195.582 16.984C194.478 17.592 192.918 17.896 190.902 17.896C189.766 17.896 188.782 17.792 187.95 17.584C187.454 17.616 187.014 17.704 186.63 17.848C186.262 17.976 186.078 18.152 186.078 18.376C186.078 18.616 186.182 18.8 186.39 18.928C186.598 19.04 186.926 19.136 187.374 19.216C187.822 19.28 188.566 19.36 189.606 19.456L193.686 19.84C194.838 19.952 195.75 20.136 196.422 20.392C197.11 20.632 197.606 20.992 197.91 21.472C198.23 21.936 198.39 22.552 198.39 23.32C198.39 24.344 198.014 25.184 197.262 25.84C196.526 26.512 195.574 27 194.406 27.304C193.238 27.608 191.99 27.76 190.662 27.76C188.758 27.76 187.19 27.496 185.958 26.968C184.742 26.456 184.134 25.672 184.134 24.616C184.134 23.944 184.398 23.424 184.926 23.056C185.454 22.688 186.15 22.448 187.014 22.336C185.19 21.904 184.278 21.048 184.278 19.768C184.278 18.376 185.126 17.528 186.822 17.224C185.318 16.568 184.566 15.48 184.566 13.96C184.566 12.568 185.11 11.576 186.198 10.984C187.302 10.392 188.87 10.096 190.902 10.096C191.878 10.128 192.726 10.208 193.446 10.336C193.91 9.632 194.558 9.056 195.39 8.608C196.222 8.144 197.222 7.912 198.39 7.912L197.814 10.672H197.55L196.95 10.504ZM190.902 17.296C191.654 17.296 192.158 17.032 192.414 16.504C192.686 15.96 192.822 15.112 192.822 13.96C192.822 12.856 192.686 12.04 192.414 11.512C192.158 10.968 191.654 10.696 190.902 10.696C190.15 10.696 189.638 10.968 189.366 11.512C189.11 12.04 188.982 12.856 188.982 13.96C188.982 15.112 189.11 15.96 189.366 16.504C189.638 17.032 190.15 17.296 190.902 17.296ZM189.51 22.744C188.662 22.632 188.07 22.544 187.734 22.48C187.526 22.928 187.422 23.496 187.422 24.184C187.422 25.176 187.662 25.912 188.142 26.392C188.622 26.872 189.518 27.112 190.83 27.112C192.366 27.112 193.558 26.92 194.406 26.536C195.254 26.168 195.678 25.616 195.678 24.88C195.678 24.464 195.59 24.144 195.414 23.92C195.254 23.712 194.982 23.544 194.598 23.416C194.214 23.304 193.646 23.208 192.894 23.128L189.51 22.744Z" fill="black"/>
<path d="M210.471 11.776C210.471 11.6 210.431 11.48 210.351 11.416C210.287 11.352 210.135 11.296 209.895 11.248L209.055 11.056V10.624L214.863 9.904H215.271V20.848C215.271 21.024 215.303 21.144 215.367 21.208C215.447 21.272 215.607 21.328 215.847 21.376L216.687 21.568V22H211.815C211.351 22 211.015 21.904 210.807 21.712C210.615 21.504 210.519 21.184 210.519 20.752V20.488C209.943 20.984 209.215 21.408 208.335 21.76C207.455 22.112 206.479 22.288 205.407 22.288C203.919 22.288 202.855 21.976 202.215 21.352C201.575 20.728 201.255 19.792 201.255 18.544V11.776C201.255 11.6 201.215 11.48 201.135 11.416C201.071 11.352 200.919 11.296 200.679 11.248L199.839 11.056V10.624L205.647 9.904H206.055V18.976C206.055 19.696 206.167 20.208 206.391 20.512C206.631 20.816 207.023 20.968 207.567 20.968C208.527 20.968 209.495 20.568 210.471 19.768V11.776Z" fill="black"/>
<path d="M227.298 22C226.85 22 226.53 21.912 226.338 21.736C226.162 21.544 226.074 21.232 226.074 20.8V20.68C225.002 21.72 223.474 22.24 221.49 22.24C220.45 22.24 219.634 22.008 219.042 21.544C218.466 21.064 218.178 20.328 218.178 19.336C218.178 18.344 218.466 17.568 219.042 17.008C219.634 16.448 220.49 16.048 221.61 15.808C222.73 15.568 224.218 15.424 226.074 15.376V13.624C226.074 12.728 225.898 12.088 225.546 11.704C225.194 11.304 224.578 11.104 223.698 11.104C222.962 11.104 222.274 11.208 221.634 11.416C221.01 11.608 220.37 11.904 219.714 12.304L219.402 11.848C220.17 11.304 221.09 10.872 222.162 10.552C223.25 10.216 224.466 10.048 225.81 10.048C227.618 10.048 228.906 10.408 229.674 11.128C230.442 11.832 230.826 12.856 230.826 14.2V20.848C230.826 21.024 230.858 21.144 230.922 21.208C231.002 21.272 231.162 21.328 231.402 21.376L232.242 21.568V22H227.298ZM224.178 20.728C224.866 20.728 225.498 20.456 226.074 19.912V16.024C225.178 16.088 224.498 16.232 224.034 16.456C223.57 16.664 223.25 16.968 223.074 17.368C222.914 17.768 222.834 18.312 222.834 19C222.834 19.608 222.938 20.048 223.146 20.32C223.37 20.592 223.714 20.728 224.178 20.728Z" fill="black"/>
<path d="M239.143 21.712C239.895 21.712 240.447 21.6 240.799 21.376C241.167 21.152 241.351 20.76 241.351 20.2C241.351 19.816 241.255 19.504 241.063 19.264C240.871 19.024 240.567 18.808 240.151 18.616C239.735 18.424 239.071 18.16 238.159 17.824C236.607 17.264 235.503 16.688 234.847 16.096C234.191 15.488 233.863 14.656 233.863 13.6C233.863 12.4 234.311 11.512 235.207 10.936C236.103 10.344 237.463 10.048 239.287 10.048C240.215 10.048 241.127 10.144 242.023 10.336C242.919 10.512 243.615 10.72 244.111 10.96L243.823 13.84H243.415C242.983 12.768 242.463 11.96 241.855 11.416C241.247 10.856 240.367 10.576 239.215 10.576C238.479 10.576 237.911 10.68 237.511 10.888C237.111 11.08 236.911 11.44 236.911 11.968C236.911 12.336 236.999 12.632 237.175 12.856C237.367 13.08 237.655 13.288 238.039 13.48C238.439 13.672 239.095 13.952 240.007 14.32C241.319 14.848 242.311 15.304 242.983 15.688C243.655 16.072 244.151 16.512 244.471 17.008C244.791 17.504 244.951 18.128 244.951 18.88C244.951 20.08 244.487 20.952 243.559 21.496C242.647 22.024 241.271 22.288 239.431 22.288C238.455 22.288 237.431 22.192 236.359 22C235.303 21.824 234.511 21.616 233.983 21.376L234.319 18.112H234.727C235.015 19.376 235.527 20.296 236.263 20.872C236.999 21.432 237.959 21.712 239.143 21.712Z" fill="black"/>
<path d="M263.256 4.912C265.96 4.912 268.12 5.584 269.736 6.928C271.352 8.272 272.16 10.464 272.16 13.504C272.16 16.544 271.352 18.736 269.736 20.08C268.12 21.424 265.96 22.096 263.256 22.096C260.552 22.096 258.392 21.424 256.776 20.08C255.16 18.736 254.352 16.544 254.352 13.504C254.352 10.464 255.16 8.272 256.776 6.928C258.392 5.584 260.552 4.912 263.256 4.912ZM263.256 21.4C264.232 21.4 264.976 21.144 265.488 20.632C266.016 20.104 266.376 19.288 266.568 18.184C266.76 17.064 266.856 15.504 266.856 13.504C266.856 11.504 266.76 9.952 266.568 8.848C266.376 7.728 266.016 6.912 265.488 6.4C264.976 5.872 264.232 5.608 263.256 5.608C262.28 5.608 261.528 5.872 261 6.4C260.488 6.912 260.136 7.728 259.944 8.848C259.752 9.952 259.656 11.504 259.656 13.504C259.656 15.504 259.752 17.064 259.944 18.184C260.136 19.288 260.488 20.104 261 20.632C261.528 21.144 262.28 21.4 263.256 21.4ZM266.952 27.4C266.344 27.4 265.784 27.296 265.272 27.088C264.776 26.88 264.144 26.56 263.376 26.128C262.464 25.6 261.64 25.192 260.904 24.904C260.168 24.632 259.312 24.48 258.336 24.448V24.16C258.928 23.36 259.704 22.96 260.664 22.96C261.096 22.96 261.552 23.008 262.032 23.104C262.528 23.216 263.2 23.392 264.048 23.632C264.896 23.872 265.624 24.056 266.232 24.184C266.856 24.328 267.456 24.4 268.032 24.4C268.304 24.4 268.52 24.336 268.68 24.208C268.856 24.096 269.04 23.912 269.232 23.656L269.424 23.392L269.952 23.512C269.616 24.824 269.216 25.8 268.752 26.44C268.304 27.08 267.704 27.4 266.952 27.4Z" fill="black"/>
<path d="M284.675 11.776C284.675 11.6 284.635 11.48 284.555 11.416C284.491 11.352 284.339 11.296 284.099 11.248L283.259 11.056V10.624L289.067 9.904H289.475V20.848C289.475 21.024 289.507 21.144 289.571 21.208C289.651 21.272 289.811 21.328 290.051 21.376L290.891 21.568V22H286.019C285.555 22 285.219 21.904 285.011 21.712C284.819 21.504 284.723 21.184 284.723 20.752V20.488C284.147 20.984 283.419 21.408 282.539 21.76C281.659 22.112 280.683 22.288 279.611 22.288C278.123 22.288 277.059 21.976 276.419 21.352C275.779 20.728 275.459 19.792 275.459 18.544V11.776C275.459 11.6 275.419 11.48 275.339 11.416C275.275 11.352 275.123 11.296 274.883 11.248L274.043 11.056V10.624L279.851 9.904H280.259V18.976C280.259 19.696 280.371 20.208 280.595 20.512C280.835 20.816 281.227 20.968 281.771 20.968C282.731 20.968 283.699 20.568 284.675 19.768V11.776Z" fill="black"/>
<path d="M297.613 15.856C297.629 17.632 297.909 18.984 298.453 19.912C299.013 20.84 300.053 21.304 301.573 21.304C302.325 21.304 302.989 21.192 303.565 20.968C304.157 20.744 304.765 20.424 305.389 20.008L305.701 20.464C304.213 21.68 302.245 22.288 299.797 22.288C297.589 22.288 295.845 21.76 294.565 20.704C293.301 19.632 292.669 18.072 292.669 16.024C292.669 14.088 293.317 12.608 294.613 11.584C295.909 10.56 297.725 10.048 300.061 10.048C301.389 10.048 302.509 10.256 303.421 10.672C304.333 11.088 305.005 11.648 305.437 12.352C305.885 13.04 306.109 13.808 306.109 14.656C306.109 15.088 306.069 15.488 305.989 15.856H297.613ZM299.917 10.624C299.037 10.624 298.437 10.992 298.117 11.728C297.797 12.464 297.629 13.632 297.613 15.232H301.645V13.432C301.645 12.456 301.525 11.744 301.285 11.296C301.061 10.848 300.605 10.624 299.917 10.624Z" fill="black"/>
<path d="M323.322 20.848C323.322 21.024 323.354 21.144 323.418 21.208C323.498 21.272 323.658 21.328 323.898 21.376L324.738 21.568V22H319.746C319.314 22 319.002 21.888 318.81 21.664C318.618 21.44 318.522 21.104 318.522 20.656V13.36C318.522 12.64 318.402 12.128 318.162 11.824C317.938 11.52 317.554 11.368 317.01 11.368C316.05 11.368 315.066 11.768 314.058 12.568V20.848C314.058 21.024 314.09 21.152 314.154 21.232C314.234 21.296 314.386 21.352 314.61 21.4L315.426 21.568V22H307.842V21.568L308.682 21.376C308.922 21.328 309.074 21.272 309.138 21.208C309.218 21.144 309.258 21.024 309.258 20.848V11.776C309.258 11.6 309.218 11.48 309.138 11.416C309.074 11.352 308.922 11.296 308.682 11.248L307.842 11.056V10.624L313.602 9.904H314.01V11.848C314.618 11.352 315.362 10.928 316.242 10.576C317.122 10.224 318.098 10.048 319.17 10.048C320.658 10.048 321.722 10.36 322.362 10.984C323.002 11.608 323.322 12.544 323.322 13.792V20.848Z" fill="black"/>
<path d="M325.794 10.96V10.336C326.29 10.336 326.658 10.296 326.898 10.216C327.138 10.136 327.378 9.992 327.618 9.784L331.89 5.944H332.106V10.336H335.202V10.96H332.106V19.024C332.106 19.792 332.194 20.336 332.37 20.656C332.562 20.96 332.882 21.112 333.33 21.112C333.682 21.112 333.994 21.04 334.266 20.896C334.538 20.752 334.834 20.504 335.154 20.152L335.538 20.608C334.53 21.728 333.042 22.288 331.074 22.288C329.746 22.288 328.794 22.008 328.218 21.448C327.642 20.888 327.354 20.016 327.354 18.832V10.96H325.794Z" fill="black"/>
<path d="M342.121 15.856C342.137 17.632 342.417 18.984 342.961 19.912C343.521 20.84 344.561 21.304 346.081 21.304C346.833 21.304 347.497 21.192 348.073 20.968C348.665 20.744 349.273 20.424 349.897 20.008L350.209 20.464C348.721 21.68 346.753 22.288 344.305 22.288C342.097 22.288 340.353 21.76 339.073 20.704C337.809 19.632 337.177 18.072 337.177 16.024C337.177 14.088 337.825 12.608 339.121 11.584C340.417 10.56 342.233 10.048 344.569 10.048C345.897 10.048 347.017 10.256 347.929 10.672C348.841 11.088 349.513 11.648 349.945 12.352C350.393 13.04 350.617 13.808 350.617 14.656C350.617 15.088 350.577 15.488 350.497 15.856H342.121ZM344.425 10.624C343.545 10.624 342.945 10.992 342.625 11.728C342.305 12.464 342.137 13.632 342.121 15.232H346.153V13.432C346.153 12.456 346.033 11.744 345.793 11.296C345.569 10.848 345.113 10.624 344.425 10.624Z" fill="black"/>
<path d="M358.205 21.712C358.957 21.712 359.509 21.6 359.861 21.376C360.229 21.152 360.413 20.76 360.413 20.2C360.413 19.816 360.317 19.504 360.125 19.264C359.933 19.024 359.629 18.808 359.213 18.616C358.797 18.424 358.133 18.16 357.221 17.824C355.669 17.264 354.565 16.688 353.909 16.096C353.253 15.488 352.925 14.656 352.925 13.6C352.925 12.4 353.373 11.512 354.269 10.936C355.165 10.344 356.525 10.048 358.349 10.048C359.277 10.048 360.189 10.144 361.085 10.336C361.981 10.512 362.677 10.72 363.173 10.96L362.885 13.84H362.477C362.045 12.768 361.525 11.96 360.917 11.416C360.309 10.856 359.429 10.576 358.277 10.576C357.541 10.576 356.973 10.68 356.573 10.888C356.173 11.08 355.973 11.44 355.973 11.968C355.973 12.336 356.061 12.632 356.237 12.856C356.429 13.08 356.717 13.288 357.101 13.48C357.501 13.672 358.157 13.952 359.069 14.32C360.381 14.848 361.373 15.304 362.045 15.688C362.717 16.072 363.213 16.512 363.533 17.008C363.853 17.504 364.013 18.128 364.013 18.88C364.013 20.08 363.549 20.952 362.621 21.496C361.709 22.024 360.333 22.288 358.493 22.288C357.517 22.288 356.493 22.192 355.421 22C354.365 21.824 353.573 21.616 353.045 21.376L353.381 18.112H353.789C354.077 19.376 354.589 20.296 355.325 20.872C356.061 21.432 357.021 21.712 358.205 21.712Z" fill="black"/>
</svg>
